<?xml version="1.0" encoding="UTF-8" standalone="no"?><!DOCTYPE svg PUBLIC "-//W3C//DTD SVG 1.1//EN" "http://www.w3.org/Graphics/SVG/1.1/DTD/svg11.dtd"><svg width="100%" height="100%" viewBox="0 0 934 150" version="1.1" xmlns="http://www.w3.org/2000/svg" xmlns:xlink="http://www.w3.org/1999/xlink" xml:space="preserve" xmlns:serif="http://www.serif.com/" style="fill-rule:evenodd;clip-rule:evenodd;stroke-linejoin:round;stroke-miterlimit:2;"><rect id="Artboard2" x="0" y="0" width="934" height="150" style="fill:none;"/><g><g transform="matrix(9.15701,0,0,9.15701,-2003.48,-2137.5)"><text x="239.643px" y="245.938px" style="font-family:'Manrope-SemiBold', 'Manrope';font-weight:600;font-size:12px;fill:#737373;">A<tspan x="247.179px 254.127px 264.351px " y="245.938px 245.938px 245.938px ">dmi</tspan></text><text x="267.171px" y="245.938px" style="font-family:'Manrope-SemiBold', 'Manrope';font-weight:600;font-size:12px;fill:#737373;">n</text><text x="277.191px" y="245.938px" style="font-family:'Manrope-Regular', 'Manrope';font-size:12px;fill:#737373;">C<tspan x="285.411px 292.155px 298.923px 304.863px 311.607px 314.043px " y="245.938px 245.938px 245.938px 245.938px 245.938px 245.938px ">onsole</tspan></text></g><path d="M85.212,8.419c-0.196,-2.434 -2.025,-4.422 -4.435,-4.819c-7.335,-1.12 -14.799,-1.12 -22.132,0.017c-2.402,0.395 -4.225,2.377 -4.42,4.803c-0.076,0.745 -0.143,1.575 -0.215,2.472c-0.59,7.348 -4.754,13.937 -11.138,17.623c-6.384,3.686 -14.173,3.998 -20.831,0.834c-0.813,-0.386 -1.565,-0.743 -2.241,-1.064c-2.206,-1.048 -4.842,-0.458 -6.391,1.43c-4.637,5.793 -8.369,12.257 -11.051,19.176c-0.859,2.278 -0.054,4.847 1.95,6.229c0.606,0.439 1.292,0.912 2.033,1.423c6.069,4.185 9.692,11.085 9.692,18.457c0,7.372 -3.623,14.272 -9.692,18.457c-0.741,0.511 -1.427,0.984 -2.043,1.409c-2.01,1.386 -2.817,3.964 -1.956,6.249c2.698,6.913 6.43,13.377 11.081,19.159c1.543,1.882 4.171,2.471 6.37,1.426c0.683,-0.306 1.435,-0.663 2.248,-1.049c6.658,-3.164 14.447,-2.852 20.831,0.834c6.384,3.686 10.548,10.275 11.138,17.623c0.072,0.897 0.139,1.727 0.198,2.473c0.196,2.434 2.025,4.422 4.435,4.819c7.335,1.12 14.799,1.12 22.132,-0.017c2.402,-0.395 4.225,-2.377 4.42,-4.803c0.076,-0.745 0.143,-1.575 0.215,-2.472c0.59,-7.348 4.754,-13.937 11.138,-17.623c6.384,-3.686 14.173,-3.998 20.831,-0.834c0.813,0.386 1.565,0.743 2.241,1.064c2.206,1.048 4.842,0.458 6.391,-1.43c4.637,-5.793 8.369,-12.257 11.051,-19.176c0.859,-2.278 0.054,-4.847 -1.95,-6.229c-0.606,-0.439 -1.292,-0.912 -2.033,-1.423c-6.069,-4.185 -9.692,-11.085 -9.692,-18.457c0,-7.372 3.623,-14.272 9.692,-18.457c0.741,-0.511 1.427,-0.984 2.043,-1.409c2.01,-1.386 2.817,-3.964 1.956,-6.249c-2.698,-6.913 -6.43,-13.377 -11.081,-19.159c-1.543,-1.882 -4.171,-2.471 -6.37,-1.426c-0.683,0.306 -1.435,0.663 -2.248,1.049c-6.658,3.164 -14.447,2.852 -20.831,-0.834c-6.384,-3.686 -10.548,-10.275 -11.138,-17.623c-0.072,-0.897 -0.139,-1.727 -0.198,-2.473Z" style="fill:#4172d9;"/><clipPath id="_clip1"><path d="M85.212,8.419c-0.196,-2.434 -2.025,-4.422 -4.435,-4.819c-7.335,-1.12 -14.799,-1.12 -22.132,0.017c-2.402,0.395 -4.225,2.377 -4.42,4.803c-0.076,0.745 -0.143,1.575 -0.215,2.472c-0.59,7.348 -4.754,13.937 -11.138,17.623c-6.384,3.686 -14.173,3.998 -20.831,0.834c-0.813,-0.386 -1.565,-0.743 -2.241,-1.064c-2.206,-1.048 -4.842,-0.458 -6.391,1.43c-4.637,5.793 -8.369,12.257 -11.051,19.176c-0.859,2.278 -0.054,4.847 1.95,6.229c0.606,0.439 1.292,0.912 2.033,1.423c6.069,4.185 9.692,11.085 9.692,18.457c0,7.372 -3.623,14.272 -9.692,18.457c-0.741,0.511 -1.427,0.984 -2.043,1.409c-2.01,1.386 -2.817,3.964 -1.956,6.249c2.698,6.913 6.43,13.377 11.081,19.159c1.543,1.882 4.171,2.471 6.37,1.426c0.683,-0.306 1.435,-0.663 2.248,-1.049c6.658,-3.164 14.447,-2.852 20.831,0.834c6.384,3.686 10.548,10.275 11.138,17.623c0.072,0.897 0.139,1.727 0.198,2.473c0.196,2.434 2.025,4.422 4.435,4.819c7.335,1.12 14.799,1.12 22.132,-0.017c2.402,-0.395 4.225,-2.377 4.42,-4.803c0.076,-0.745 0.143,-1.575 0.215,-2.472c0.59,-7.348 4.754,-13.937 11.138,-17.623c6.384,-3.686 14.173,-3.998 20.831,-0.834c0.813,0.386 1.565,0.743 2.241,1.064c2.206,1.048 4.842,0.458 6.391,-1.43c4.637,-5.793 8.369,-12.257 11.051,-19.176c0.859,-2.278 0.054,-4.847 -1.95,-6.229c-0.606,-0.439 -1.292,-0.912 -2.033,-1.423c-6.069,-4.185 -9.692,-11.085 -9.692,-18.457c0,-7.372 3.623,-14.272 9.692,-18.457c0.741,-0.511 1.427,-0.984 2.043,-1.409c2.01,-1.386 2.817,-3.964 1.956,-6.249c-2.698,-6.913 -6.43,-13.377 -11.081,-19.159c-1.543,-1.882 -4.171,-2.471 -6.37,-1.426c-0.683,0.306 -1.435,0.663 -2.248,1.049c-6.658,3.164 -14.447,2.852 -20.831,-0.834c-6.384,-3.686 -10.548,-10.275 -11.138,-17.623c-0.072,-0.897 -0.139,-1.727 -0.198,-2.473Z"/></clipPath><g clip-path="url(#_clip1)"><g><path d="M90.987,30.165l17.831,17.832l6.436,-2.651l115.047,115.047l-69.52,61.978l-91.071,-88.106l-21.686,-88.903l13.804,13.804l8.382,20.106l20.777,-49.107Z" style="fill:url(#_Linear2);"/><g><path d="M48.43,30.165l42.56,0l-21.28,50.298l-21.28,-50.298Z" style="fill:#f0f0f0;fill-rule:nonzero;"/><clipPath id="_clip3"><path d="M48.43,30.165l42.56,0l-21.28,50.298l-21.28,-50.298Z" clip-rule="nonzero"/></clipPath><g clip-path="url(#_clip3)"><rect x="69.71" y="21.655" width="21.28" height="62.273" style="fill:url(#_Linear4);"/></g><path d="M24.166,45.346l23.857,0l21.687,49.881l21.687,-49.881l23.857,0l-45.544,88.919l-45.544,-88.919Z" style="fill:#fafafa;fill-rule:nonzero;"/><clipPath id="_clip5"><path d="M24.166,45.346l23.857,0l21.687,49.881l21.687,-49.881l23.857,0l-45.544,88.919l-45.544,-88.919Z" clip-rule="nonzero"/></clipPath><g clip-path="url(#_clip5)"><rect x="69.71" y="21.655" width="45.544" height="115.603" style="fill:url(#_Linear6);"/></g></g></g></g></g><defs><linearGradient id="_Linear2" x1="0" y1="0" x2="1" y2="0" gradientUnits="userSpaceOnUse" gradientTransform="matrix(68.8907,66.2556,-66.2556,68.8907,49.434,39.409)"><stop offset="0" style="stop-color:#000;stop-opacity:0.2"/><stop offset="1" style="stop-color:#000;stop-opacity:0"/></linearGradient><linearGradient id="_Linear4" x1="0" y1="0" x2="1" y2="0" gradientUnits="userSpaceOnUse" gradientTransform="matrix(19.5344,0,0,23.9529,69.71,49.7268)"><stop offset="0" style="stop-color:#000;stop-opacity:0.0980392"/><stop offset="1" style="stop-color:#000;stop-opacity:0"/></linearGradient><linearGradient id="_Linear6" x1="0" y1="0" x2="1" y2="0" gradientUnits="userSpaceOnUse" gradientTransform="matrix(41.8078,0,0,44.4658,69.71,73.767)"><stop offset="0" style="stop-color:#000;stop-opacity:0.0980392"/><stop offset="1" style="stop-color:#000;stop-opacity:0"/></linearGradient></defs></svg>