<?xml version="1.0" encoding="UTF-8" standalone="no"?><!DOCTYPE svg PUBLIC "-//W3C//DTD SVG 1.1//EN" "http://www.w3.org/Graphics/SVG/1.1/DTD/svg11.dtd"><svg width="100%" height="100%" viewBox="0 0 934 150" version="1.1" xmlns="http://www.w3.org/2000/svg" xmlns:xlink="http://www.w3.org/1999/xlink" xml:space="preserve" xmlns:serif="http://www.serif.com/" style="fill-rule:evenodd;clip-rule:evenodd;stroke-linejoin:round;stroke-miterlimit:2;"><rect id="Artboard2" x="0" y="0" width="934" height="150" style="fill:none;"/><g><g><path d="M249.162,114.551l11.865,0l-25.708,-79.102l-16.479,0l-25.708,79.102l11.865,0l5.823,-17.801l32.519,0l5.823,17.801Zm-34.827,-28.556l12.635,-39.022l12.854,39.022l-25.489,0Z" style="fill:#737373;fill-rule:nonzero;"/><path d="M307.521,35.449l0,23.837c-4.177,-3.622 -9.564,-5.707 -16.16,-5.707c-16.597,0 -27.024,13.393 -27.024,31.31c0,17.808 10.317,31.311 26.804,31.311c7.585,0 13.522,-2.634 17.809,-7.133l0,5.484l10.205,0l0,-79.102l-11.634,0Zm-14.731,70.325c-10.993,0 -16.27,-9.123 -16.27,-20.885c0,-11.651 5.277,-20.884 16.6,-20.884c10.883,0 15.83,8.463 15.83,20.884c0,12.202 -4.837,20.885 -16.16,20.885Z" style="fill:#737373;fill-rule:nonzero;"/><path d="M393.775,53.689c-7.806,0 -14.513,3.622 -18.136,9.657c-3.073,-6.035 -9,-9.657 -17.246,-9.657c-7.036,0 -13.193,3.073 -17.041,7.901l0,-6.362l-10.206,0l0,59.323l11.634,0l0,-37.14c0,-8.022 4.728,-13.406 11.985,-13.406c7.366,0 12.094,5.164 12.094,13.845l0,36.701l11.414,0l0,-37.14c0,-8.901 5.607,-13.406 12.094,-13.406c7.147,0 11.984,5.054 11.984,13.515l0,37.031l11.524,0l0,-39.778c0,-12.744 -7.353,-21.084 -20.1,-21.084Z" style="fill:#737373;fill-rule:nonzero;"/><path d="M425.976,45.105l11.525,0l0,-11.085l-11.525,0l0,11.085Zm0,69.446l11.525,0l0,-59.323l-11.525,0l0,59.323Z" style="fill:#737373;fill-rule:nonzero;"/><path d="M480.474,53.579c-8.575,0 -15.171,3.293 -19.568,8.78l0,-7.131l-10.316,0l0,59.323l11.634,0l0,-30.87c0,-14.072 6.816,-19.237 15.171,-19.237c12.533,0 14.951,11.758 14.951,20.988l0,29.119l11.634,0l0,-32.965c0,-9.12 -2.963,-28.007 -23.506,-28.007Z" style="fill:#737373;fill-rule:nonzero;"/><path d="M574.526,116.2c18.351,0 30.108,-10.206 34.394,-26.033l-8.242,-2.088c-3.296,12.529 -12.087,20.333 -26.152,20.333c-18.57,0 -28.13,-13.629 -27.911,-33.412c0.11,-19.783 9.341,-33.412 27.911,-33.412c14.065,0 22.856,7.804 26.152,20.333l8.242,-2.088c-4.286,-15.826 -16.043,-26.033 -34.394,-26.033c-23.735,0 -36.468,16.911 -36.468,41.2c0,24.289 12.733,41.2 36.468,41.2Z" style="fill:#737373;fill-rule:nonzero;"/><path d="M642.551,116.2c17.588,0 28.124,-12.735 28.124,-31.42c0,-18.356 -10.426,-31.201 -28.124,-31.201c-17.368,0 -28.123,12.625 -28.123,31.201c0,18.466 10.426,31.42 28.123,31.42Zm0,-7.678c-12.861,0 -19.566,-9.343 -19.566,-23.742c0,-13.85 6.265,-23.522 19.566,-23.522c12.971,0 19.566,9.233 19.566,23.522c0,14.069 -6.485,23.742 -19.566,23.742Z" style="fill:#737373;fill-rule:nonzero;"/><path d="M706.724,53.799c-8.574,0 -15.609,3.291 -20.006,9.656l0,-8.227l-7.239,0l0,59.323l8.118,0l0,-31.639c0,-13.413 6.156,-21.435 17.478,-21.435c12.532,0 17.259,9.67 17.259,22.746l0,30.328l8.117,0l0,-32.635c0,-13.406 -6.033,-28.117 -23.727,-28.117Z" style="fill:#737373;fill-rule:nonzero;"/><path d="M763.644,116.09c14.511,0 23.288,-6.691 23.288,-18.011c0,-9.123 -5.046,-13.409 -21.42,-17.586c-13.961,-3.517 -17.369,-5.606 -17.369,-10.442c0,-5.606 5.826,-9.342 14.291,-9.123c8.905,0.11 15.061,4.506 16.16,11.431l8.228,-1.539c-1.097,-10.331 -10.976,-17.241 -24.278,-17.241c-13.522,0 -22.519,6.801 -22.519,16.912c0,8.353 4.827,12.2 20.98,16.487c15.061,4.067 17.589,5.716 17.589,11.211c0,6.595 -5.606,10.552 -14.511,10.552c-9.234,0 -15.94,-4.177 -17.695,-10.991l-8.231,1.319c2.088,10.769 11.525,17.021 25.487,17.021Z" style="fill:#737373;fill-rule:nonzero;"/><path d="M820.673,116.2c17.588,0 28.124,-12.735 28.124,-31.42c0,-18.356 -10.426,-31.201 -28.124,-31.201c-17.368,0 -28.123,12.625 -28.123,31.201c0,18.466 10.426,31.42 28.123,31.42Zm0,-7.678c-12.861,0 -19.566,-9.343 -19.566,-23.742c0,-13.85 6.266,-23.522 19.566,-23.522c12.971,0 19.566,9.233 19.566,23.522c0,14.069 -6.485,23.742 -19.566,23.742Z" style="fill:#737373;fill-rule:nonzero;"/><rect x="858.7" y="33.8" width="8.008" height="80.751" style="fill:#737373;fill-rule:nonzero;"/><path d="M885.278,87.19l46.701,0c0.549,-20.984 -9.656,-33.611 -27.244,-33.611c-17.149,0 -28.124,12.077 -28.124,31.528c0,18.906 11.085,31.093 28.336,31.093c11.538,0 21.208,-5.923 25.933,-16.255l-7.582,-2.859c-3.626,7.367 -10.109,11.436 -18.57,11.436c-11.865,0 -18.79,-7.807 -19.45,-21.332Zm19.677,-26.262c10.992,0 17.258,6.708 18.577,19.463l-38.144,0c1.319,-12.425 8.025,-19.463 19.567,-19.463Z" style="fill:#737373;fill-rule:nonzero;"/></g><path d="M85.212,8.419c-0.196,-2.434 -2.025,-4.422 -4.435,-4.819c-7.335,-1.12 -14.799,-1.12 -22.132,0.017c-2.402,0.395 -4.225,2.377 -4.42,4.803c-0.076,0.745 -0.143,1.575 -0.215,2.472c-0.59,7.348 -4.754,13.937 -11.138,17.623c-6.384,3.686 -14.173,3.998 -20.831,0.834c-0.813,-0.386 -1.565,-0.743 -2.241,-1.064c-2.206,-1.048 -4.842,-0.458 -6.391,1.43c-4.637,5.793 -8.369,12.257 -11.051,19.176c-0.859,2.278 -0.054,4.847 1.95,6.229c0.606,0.439 1.292,0.912 2.033,1.423c6.069,4.185 9.692,11.085 9.692,18.457c0,7.372 -3.623,14.272 -9.692,18.457c-0.741,0.511 -1.427,0.984 -2.043,1.409c-2.01,1.386 -2.817,3.964 -1.956,6.249c2.698,6.913 6.43,13.377 11.081,19.159c1.543,1.882 4.171,2.471 6.37,1.426c0.683,-0.306 1.435,-0.663 2.248,-1.049c6.658,-3.164 14.447,-2.852 20.831,0.834c6.384,3.686 10.548,10.275 11.138,17.623c0.072,0.897 0.139,1.727 0.198,2.473c0.196,2.434 2.025,4.422 4.435,4.819c7.335,1.12 14.799,1.12 22.132,-0.017c2.402,-0.395 4.225,-2.377 4.42,-4.803c0.076,-0.745 0.143,-1.575 0.215,-2.472c0.59,-7.348 4.754,-13.937 11.138,-17.623c6.384,-3.686 14.173,-3.998 20.831,-0.834c0.813,0.386 1.565,0.743 2.241,1.064c2.206,1.048 4.842,0.458 6.391,-1.43c4.637,-5.793 8.369,-12.257 11.051,-19.176c0.859,-2.278 0.054,-4.847 -1.95,-6.229c-0.606,-0.439 -1.292,-0.912 -2.033,-1.423c-6.069,-4.185 -9.692,-11.085 -9.692,-18.457c0,-7.372 3.623,-14.272 9.692,-18.457c0.741,-0.511 1.427,-0.984 2.043,-1.409c2.01,-1.386 2.817,-3.964 1.956,-6.249c-2.698,-6.913 -6.43,-13.377 -11.081,-19.159c-1.543,-1.882 -4.171,-2.471 -6.37,-1.426c-0.683,0.306 -1.435,0.663 -2.248,1.049c-6.658,3.164 -14.447,2.852 -20.831,-0.834c-6.384,-3.686 -10.548,-10.275 -11.138,-17.623c-0.072,-0.897 -0.139,-1.727 -0.198,-2.473Z" style="fill:#4172d9;"/><clipPath id="_clip1"><path d="M85.212,8.419c-0.196,-2.434 -2.025,-4.422 -4.435,-4.819c-7.335,-1.12 -14.799,-1.12 -22.132,0.017c-2.402,0.395 -4.225,2.377 -4.42,4.803c-0.076,0.745 -0.143,1.575 -0.215,2.472c-0.59,7.348 -4.754,13.937 -11.138,17.623c-6.384,3.686 -14.173,3.998 -20.831,0.834c-0.813,-0.386 -1.565,-0.743 -2.241,-1.064c-2.206,-1.048 -4.842,-0.458 -6.391,1.43c-4.637,5.793 -8.369,12.257 -11.051,19.176c-0.859,2.278 -0.054,4.847 1.95,6.229c0.606,0.439 1.292,0.912 2.033,1.423c6.069,4.185 9.692,11.085 9.692,18.457c0,7.372 -3.623,14.272 -9.692,18.457c-0.741,0.511 -1.427,0.984 -2.043,1.409c-2.01,1.386 -2.817,3.964 -1.956,6.249c2.698,6.913 6.43,13.377 11.081,19.159c1.543,1.882 4.171,2.471 6.37,1.426c0.683,-0.306 1.435,-0.663 2.248,-1.049c6.658,-3.164 14.447,-2.852 20.831,0.834c6.384,3.686 10.548,10.275 11.138,17.623c0.072,0.897 0.139,1.727 0.198,2.473c0.196,2.434 2.025,4.422 4.435,4.819c7.335,1.12 14.799,1.12 22.132,-0.017c2.402,-0.395 4.225,-2.377 4.42,-4.803c0.076,-0.745 0.143,-1.575 0.215,-2.472c0.59,-7.348 4.754,-13.937 11.138,-17.623c6.384,-3.686 14.173,-3.998 20.831,-0.834c0.813,0.386 1.565,0.743 2.241,1.064c2.206,1.048 4.842,0.458 6.391,-1.43c4.637,-5.793 8.369,-12.257 11.051,-19.176c0.859,-2.278 0.054,-4.847 -1.95,-6.229c-0.606,-0.439 -1.292,-0.912 -2.033,-1.423c-6.069,-4.185 -9.692,-11.085 -9.692,-18.457c0,-7.372 3.623,-14.272 9.692,-18.457c0.741,-0.511 1.427,-0.984 2.043,-1.409c2.01,-1.386 2.817,-3.964 1.956,-6.249c-2.698,-6.913 -6.43,-13.377 -11.081,-19.159c-1.543,-1.882 -4.171,-2.471 -6.37,-1.426c-0.683,0.306 -1.435,0.663 -2.248,1.049c-6.658,3.164 -14.447,2.852 -20.831,-0.834c-6.384,-3.686 -10.548,-10.275 -11.138,-17.623c-0.072,-0.897 -0.139,-1.727 -0.198,-2.473Z"/></clipPath><g clip-path="url(#_clip1)"><g><path d="M90.987,30.165l17.831,17.832l6.436,-2.651l115.047,115.047l-69.52,61.978l-91.071,-88.106l-21.686,-88.903l13.804,13.804l8.382,20.106l20.777,-49.107Z" style="fill:url(#_Linear2);"/><g><path d="M48.43,30.165l42.56,0l-21.28,50.298l-21.28,-50.298Z" style="fill:#f0f0f0;fill-rule:nonzero;"/><clipPath id="_clip3"><path d="M48.43,30.165l42.56,0l-21.28,50.298l-21.28,-50.298Z" clip-rule="nonzero"/></clipPath><g clip-path="url(#_clip3)"><rect x="69.71" y="21.655" width="21.28" height="62.273" style="fill:url(#_Linear4);"/></g><path d="M24.166,45.346l23.857,0l21.687,49.881l21.687,-49.881l23.857,0l-45.544,88.919l-45.544,-88.919Z" style="fill:#fafafa;fill-rule:nonzero;"/><clipPath id="_clip5"><path d="M24.166,45.346l23.857,0l21.687,49.881l21.687,-49.881l23.857,0l-45.544,88.919l-45.544,-88.919Z" clip-rule="nonzero"/></clipPath><g clip-path="url(#_clip5)"><rect x="69.71" y="21.655" width="45.544" height="115.603" style="fill:url(#_Linear6);"/></g></g></g></g></g><defs><linearGradient id="_Linear2" x1="0" y1="0" x2="1" y2="0" gradientUnits="userSpaceOnUse" gradientTransform="matrix(68.8907,66.2556,-66.2556,68.8907,49.434,39.409)"><stop offset="0" style="stop-color:#000;stop-opacity:0.2"/><stop offset="1" style="stop-color:#000;stop-opacity:0"/></linearGradient><linearGradient id="_Linear4" x1="0" y1="0" x2="1" y2="0" gradientUnits="userSpaceOnUse" gradientTransform="matrix(19.5344,0,0,23.9529,69.71,49.7268)"><stop offset="0" style="stop-color:#000;stop-opacity:0.0980392"/><stop offset="1" style="stop-color:#000;stop-opacity:0"/></linearGradient><linearGradient id="_Linear6" x1="0" y1="0" x2="1" y2="0" gradientUnits="userSpaceOnUse" gradientTransform="matrix(41.8078,0,0,44.4658,69.71,73.767)"><stop offset="0" style="stop-color:#000;stop-opacity:0.0980392"/><stop offset="1" style="stop-color:#000;stop-opacity:0"/></linearGradient></defs></svg>